<mxfile host="app.diagrams.net" modified="2022-05-19T02:45:33.101Z" agent="5.0 (Windows NT 10.0; Win64; x64) AppleWebKit/537.36 (KHTML, like Gecko) Chrome/101.0.4951.64 Safari/537.36 Edg/101.0.1210.47" etag="x3P7HoDW_rFFDMgBqV5a" version="18.0.1" type="github">
  <diagram id="WtT-e7tUKOcSB-cBHrix" name="Page-1">
    <mxGraphModel dx="1221" dy="686" grid="1" gridSize="10" guides="1" tooltips="1" connect="1" arrows="1" fold="1" page="1" pageScale="1" pageWidth="827" pageHeight="1169" math="0" shadow="0">
      <root>
        <mxCell id="0" />
        <mxCell id="1" parent="0" />
        <mxCell id="o3YdndwRm3jH2NdIJKdw-1" value="&lt;div style=&quot;text-align: start;&quot;&gt;&lt;span style=&quot;background-color: initial; font-size: 19.2px;&quot;&gt;&lt;font face=&quot;monospace, monospace&quot; color=&quot;#222222&quot;&gt;&lt;b&gt;_PyFunction_FastCallDict&lt;/b&gt;&lt;/font&gt;&lt;/span&gt;&lt;/div&gt;" style="rounded=0;whiteSpace=wrap;html=1;" vertex="1" parent="1">
          <mxGeometry x="120" y="220" width="250" height="40" as="geometry" />
        </mxCell>
        <mxCell id="o3YdndwRm3jH2NdIJKdw-2" value="&lt;span style=&quot;color: rgb(34, 34, 34); font-family: &amp;quot;monospace&amp;quot;, monospace; font-size: 19.2px; font-weight: 700; text-align: start; background-color: rgb(255, 255, 255);&quot;&gt;_PyEval_EvalCodeWithName&lt;/span&gt;" style="rounded=0;whiteSpace=wrap;html=1;" vertex="1" parent="1">
          <mxGeometry x="120" y="260" width="250" height="40" as="geometry" />
        </mxCell>
        <mxCell id="o3YdndwRm3jH2NdIJKdw-5" value="&lt;span style=&quot;color: rgb(34, 34, 34); font-family: &amp;quot;monospace&amp;quot;, monospace; font-size: 19.2px; font-weight: 700; text-align: start; background-color: rgb(255, 255, 255);&quot;&gt;PyEval_EvalFrameEx&lt;/span&gt;" style="rounded=0;whiteSpace=wrap;html=1;" vertex="1" parent="1">
          <mxGeometry x="120" y="300" width="250" height="40" as="geometry" />
        </mxCell>
        <mxCell id="o3YdndwRm3jH2NdIJKdw-6" value="" style="shape=flexArrow;endArrow=classic;html=1;rounded=0;" edge="1" parent="1">
          <mxGeometry width="50" height="50" relative="1" as="geometry">
            <mxPoint x="400" y="239.41000000000003" as="sourcePoint" />
            <mxPoint x="530" y="239.41000000000003" as="targetPoint" />
          </mxGeometry>
        </mxCell>
        <mxCell id="o3YdndwRm3jH2NdIJKdw-7" value="" style="endArrow=none;dashed=1;html=1;rounded=0;dashPattern=1 1;strokeWidth=5;" edge="1" parent="1">
          <mxGeometry width="50" height="50" relative="1" as="geometry">
            <mxPoint x="244.41" y="520" as="sourcePoint" />
            <mxPoint x="244.91" y="460" as="targetPoint" />
            <Array as="points" />
          </mxGeometry>
        </mxCell>
        <mxCell id="o3YdndwRm3jH2NdIJKdw-8" value="&lt;b&gt;&lt;font style=&quot;font-size: 20px;&quot;&gt;Python3.7&lt;/font&gt;&lt;/b&gt;" style="text;html=1;resizable=0;autosize=1;align=center;verticalAlign=middle;points=[];fillColor=none;strokeColor=none;rounded=0;" vertex="1" parent="1">
          <mxGeometry x="190" y="180" width="110" height="20" as="geometry" />
        </mxCell>
        <mxCell id="o3YdndwRm3jH2NdIJKdw-9" value="&lt;span style=&quot;color: rgb(34, 34, 34); font-family: &amp;quot;monospace&amp;quot;, monospace; font-size: 19.2px; font-weight: 700; text-align: start; background-color: rgb(255, 255, 255);&quot;&gt;_PyEval_EvalFrame&lt;/span&gt;" style="rounded=0;whiteSpace=wrap;html=1;" vertex="1" parent="1">
          <mxGeometry x="550" y="220" width="240" height="40" as="geometry" />
        </mxCell>
        <mxCell id="o3YdndwRm3jH2NdIJKdw-15" value="&lt;b&gt;&lt;font style=&quot;font-size: 20px;&quot;&gt;Python3.11&lt;/font&gt;&lt;/b&gt;" style="text;html=1;resizable=0;autosize=1;align=center;verticalAlign=middle;points=[];fillColor=none;strokeColor=none;rounded=0;" vertex="1" parent="1">
          <mxGeometry x="610" y="180" width="120" height="20" as="geometry" />
        </mxCell>
        <mxCell id="o3YdndwRm3jH2NdIJKdw-18" value="&lt;div style=&quot;text-align: start;&quot;&gt;&lt;span style=&quot;background-color: initial; font-size: 19.2px;&quot;&gt;&lt;font face=&quot;monospace, monospace&quot; color=&quot;#222222&quot;&gt;&lt;b&gt;_PyFunction_FastCallDict&lt;/b&gt;&lt;/font&gt;&lt;/span&gt;&lt;/div&gt;" style="rounded=0;whiteSpace=wrap;html=1;" vertex="1" parent="1">
          <mxGeometry x="120" y="340" width="250" height="40" as="geometry" />
        </mxCell>
        <mxCell id="o3YdndwRm3jH2NdIJKdw-19" value="&lt;span style=&quot;color: rgb(34, 34, 34); font-family: &amp;quot;monospace&amp;quot;, monospace; font-size: 19.2px; font-weight: 700; text-align: start; background-color: rgb(255, 255, 255);&quot;&gt;_PyEval_EvalCodeWithName&lt;/span&gt;" style="rounded=0;whiteSpace=wrap;html=1;" vertex="1" parent="1">
          <mxGeometry x="120" y="380" width="250" height="40" as="geometry" />
        </mxCell>
        <mxCell id="o3YdndwRm3jH2NdIJKdw-20" value="&lt;span style=&quot;color: rgb(34, 34, 34); font-family: &amp;quot;monospace&amp;quot;, monospace; font-size: 19.2px; font-weight: 700; text-align: start; background-color: rgb(255, 255, 255);&quot;&gt;PyEval_EvalFrameEx&lt;/span&gt;" style="rounded=0;whiteSpace=wrap;html=1;" vertex="1" parent="1">
          <mxGeometry x="120" y="420" width="250" height="40" as="geometry" />
        </mxCell>
      </root>
    </mxGraphModel>
  </diagram>
</mxfile>
